<svg version="1.1" xmlns="http://www.w3.org/2000/svg" xmlns:xlink="http://www.w3.org/1999/xlink" x="0px" y="0px"
	 viewBox="0 0 78.4 131" style="enable-background:new 0 0 78.4 131;" xml:space="preserve">
<style type="text/css">
	*{
		margin: 0;
		padding: 0;
		box-sizing: border-box;
	}
	body{
		background:#ceb591;
		width: 100%;
		height: 100vh;
		display: flex;
		flex-direction: column;
		align-items: center;
		justify-content: center;
	}
	h1{
		font-size: 3rem;
		color:#efefef;
		position: absolute;
		top: 10%;
		text-shadow: 3px 3px 0px #632c41;
	}
	.outline-brown{
		border: 5px solid #914141;
		border-radius: 10px;
	}
	.face{
		height: 200px;
		width: 200px;
		position: relative;
		display: flex;
		flex-direction: column;
		justify-content: space-around;
		align-items: center;
		padding: 30px;
	}
	.eyes{
		display: flex;
		justify-content: space-around;
		width: 100%;
	}
	.eyes div{
		height: 30px;
		width: 30px;
		background: #914141;
		height: 30px;
		width: 30px;
		background: #914141;
	}
	.mouth{
		height: 20px;
		width: 100px;
		background: #914141;
	}
	.btn{
		position: relative;
		top: 5%;
		padding: 4px 15px;
		background: transparent;
		color: #914141;
		font-weight: bold;
	}
	svg{
		top: 10%;
		position: relative;
		height: 50%;
	}
	svg:hover{
		animation: 1s float infinite alternate;
	}
	.appear{
		animation: appear .5s;
	}
	@keyframes appear{
		from{
			transform: scale(0.3, 0.3);
		}
		to{
			transform: scale(1,1);
		}
	}
	@keyframes float{
		from{
			top: 10%;
		}
		to{
			top: 13%;
		}
	}
	.st0{display:none;}
	.st1{display:inline;}
	.st2{display:inline;fill:#CEB591;}
	.st3{fill:#914141;}
	.st4{fill:#B29074;}
	.st5{fill:#632C41;}
	.st6{fill:#EACEAC;}
	.st7{fill:#FFFFFF;}
	.st8{display:inline;fill:#632C41;}
	.st9{display:inline;fill:#914141;}
	.st10{display:inline;fill:#B29074;}
	.st11{display:inline;fill:#EACEAC;}
	.st12{display:inline;fill:#FFFFFF;}
	.hide{
		display: none;
	}
	.show{
		display: flex;
	}
</style>
<g id="Layer_1" class="st0">
	<g class="st1">
		<defs>
			<path id="SVGID_1_" d="M-206.5,215.9c0,0-21.1,348.2,210.8,334.3c231.9-13.9,290.8-146.4,304.4-438.5
				c13.6-292.1,27.5-544.2-316.2-509.4S-206.5,215.9-206.5,215.9z"/>
		</defs>
		<clipPath id="SVGID_2_">
			<use xlink:href="#SVGID_1_"  style="overflow:visible;"/>
		</clipPath>
		<g transform="matrix(1 9.313226e-10 -9.313226e-10 1 0 0)" style="clip-path:url(#SVGID_2_);">
			
				<image style="overflow:visible;" width="4032" height="3024" xlink:href="20190824_161435.jpg"  transform="matrix(8.260632e-03 1 -1 8.260632e-03 1093.7207 -994.009)">
			</image>
		</g>
	</g>
</g>
<g id="Layer_2" class="st0">
	<rect x="-355.6" y="-498.1" class="st2" width="792" height="1224"/>
</g>
<g id="Layer_4">
	<path class="st3" d="M8.7,33.2c2.9-1.8,5-3,8.3-2.6c3.3,0.4,7-0.3,9.6-0.9c2.5-0.6,5.9-0.7,10.8-0.7s11.9-1.2,15.5-2.4
		c3.6-1.2,7.6-2.1,9.1-0.1c-2.1-2.9-3.6-5-5.7-3.9c-2.1,1-12.1,4.2-16.2,4s-12-0.7-14.8-0.3C22.4,26.7,10.6,25.1,8.7,33.2z"/>
	<path class="st3" d="M22.8,52.9c0,0-1.7-1.4-5.3-0.3c-3.6,1.1-4.4,0.7-4.1-0.4s3.6-3.1,5.9-3.1c2.3,0,5.9-0.3,6.1,2
		C25.6,53.4,22.8,52.9,22.8,52.9z"/>
	<path class="st3" d="M46.4,52.2c0,0,3-0.2,5.2-0.3c2.2,0,3.8-0.4,5.1,0.4c0.6,0.6,1-0.3,0-1.6c-1-1.3-1.6-2.3-4.4-2.2
		c-2.6,0.1-6.1,0.4-6.6,1.9C45.2,51.9,46.4,52.2,46.4,52.2z"/>
	<path class="st3" d="M23.5,62.8c0-0.4-0.1-0.8-0.3-1.1c-0.4,0-0.7,0-1.1,0c0.4,0.2,0.7,0.7,0.7,1.2c0,0.8-0.6,1.4-1.4,1.4
		c-0.8,0-1.4-0.6-1.4-1.4c0-0.5,0.2-0.9,0.6-1.2c-0.4,0-0.8,0.1-1.1,0.1c-0.2,0.3-0.3,0.7-0.3,1.1c0,0.6,0.2,1.1,0.6,1.5
		c0.9,0,1.9,0,2.8,0.1C23.2,64,23.5,63.4,23.5,62.8z"/>
	<path class="st3" d="M51.7,60.9c-0.3,0-0.7,0-1.1,0c0.4,0.2,0.7,0.6,0.7,1.1c0,0.8-0.5,1.4-1.3,1.4c-0.8,0-1.4-0.5-1.4-1.3
		c0-0.5,0.2-1,0.6-1.2c-0.4,0-0.7,0.1-1.1,0.1c-0.2,0.3-0.3,0.7-0.3,1.2c0,0.6,0.3,1.2,0.8,1.6c0.9-0.1,1.9-0.2,2.8-0.2
		c0.4-0.4,0.6-0.9,0.6-1.5C52,61.6,51.9,61.3,51.7,60.9z"/>
	<path class="st3" d="M31.8,60.9c-0.8-3.4-2.3-5.8-5.5-7.1c-3.2-1.3-1.8-0.1-0.3,1s3.8,4,4,6.8C30.3,64.4,32,61.7,31.8,60.9z"/>
	<path class="st3" d="M36.7,81.2c-0.8,0.5-2.2,1.5-3.6,0.9c-1.4-0.6-2.2-1-3.2-1.2c-1-0.2-2.3,0.9-3.3,0c-0.9-0.9-1.4-1.5-1.6-2.5
		c-2.9,1.9-5.1,5.9-5.9,7s-1.5,1.3-1.3,0.8c0.2-0.4,0.6-0.3,1.2-1.4c0.6-1.1,3.6-6.9,5.8-7.4c0.2-1.7,1.4-3.1,2.4-3.4
		c-1.4,0.7-2,2.5-1.6,3.9c0.4,1.4,0.9,1.5,1.9,1.2c0.4-0.1,2.2-0.2,2.4-0.5c0.4-0.4,0.1-2.1,0.4-2c0.3,0.1,0.4,1.8,0.7,2.3
		c0.3,0.5,1.8,2.1,3.4,1.8c1.6-0.3,3.4-2.2,5.7-1.8c2.3,0.4,1.3,1.1,2.6,0.9c1.3-0.2,2.1-0.8,1.7-3c-0.5-2.2-1.5-3.3-1.5-3.3
		s1.5,0.5,2,1.5c0.6,0.9,2.1,2.6,3.4,4.1c1.3,1.5,5.6,5.1,5.9,7.7c-1-2.3-2.9-4.2-4.3-5.3c-1.4-1.1-4.5-3.9-5.1-5.5
		c0.4,1.9,1.4,3.9-1.3,4.5c-2.7,0.7-2.8,0-2.8,0s-1.5,0.5-2.3,0.2C37.7,80.5,37.2,80.9,36.7,81.2z"/>
	<path class="st3" d="M24.9,64.1c0.6-0.9,0-1.9-0.8-2.3c1.2,0.3,1.9,0.7,2.3,1.2C26.8,63.5,26.6,63.9,24.9,64.1z"/>
	<path class="st3" d="M13,64.3c0.2,1.1,0.9,3.1,3.4,3.1c2.5,0,4.7-0.7,5.4-0.9c-5.5,1.2-7-1.7-3.2-2.2c-0.5-0.3-0.9-0.5-0.8-1
		c0-0.5,1.9-1.4,1.9-1.4c-5.2,1.5-7.3,0.4-6.2-4.1C12,60.6,12.8,63.2,13,64.3z"/>
	<path class="st3" d="M19,68.9c2.5,1.1,6,0.1,7.2-0.5C24.4,69.6,21.8,71,19,68.9z"/>
	<path class="st3" d="M53.3,63.2c1.6,0.1,2.6,0.7,2.1,1c-0.6,0.3-4.6,1.2-6.1,1.4c7.1-0.1,8.9-0.4,9.4-1.1c0.5-0.7,1-1.9,0.4-3
		C58,60.3,56.6,60,56.6,60s0.6,0.6,0.9,1.2c0.6,1,0,1.4-1,1.4C55.3,62.2,54.6,62.9,53.3,63.2z"/>
	<path class="st3" d="M22.7,91.6c-0.7,0.3-1.2,0.1-0.4-0.5s1.6-1,2.6-1.1c1-0.1,1.9-0.6,2.7-1c0.8-0.4,2-0.8,3.2-1s1.4,0.1,2.7,0.6
		C34.7,89,35,89,36,88.4c1.2-0.7,1.2-1.1,3.7-0.2c2.5,0.9,4.8,1.6,5.8,1.7s1.5-0.2,3,0.2c1.5,0.5,1.5,0.9,0.2,0.8
		c-1.3-0.1-1.7-0.2-2.6,0c-0.9,0.1-2.8,0.2-3.7,0.7c-0.9,0.5-1.5,1.6-6.1,1.8c3.9-0.6,4.3-1.6,4.9-3c0,0-0.8-0.3-2-0.3
		c-2.8,0-1.6,0.5-4.2,0.6c-0.6,0.1-0.9,0.1-1.9-0.1s-1.2-0.3-1.5-0.1c-0.3,0.2-3,1.5,0,2.5c-3-0.4-3.9-0.3-4.8-1
		c-0.9-0.7-1-1.2-1.8-1.2S22.7,91.6,22.7,91.6z"/>
	<path class="st3" d="M5.8,87.7c1.1,5.6,3.3,10.5,7.7,14.1C8.3,98.6,6.2,94.8,5.8,87.7z"/>
	<path class="st3" d="M24.9,107.3c7.3,4.2,17.7,2.8,23.1,0C43.7,110.8,32.8,113.8,24.9,107.3z"/>
	<path class="st3" d="M62.9,99.4c4.1-5.1,5.2-7.1,5.4-12.7C67.1,93.2,66.5,93.7,62.9,99.4z"/>
	<path class="st3" d="M69.9,81.3c0.5,1.2,2,2.5,4.3-1.1c-1.2,3-1.6,3.3-3.3,3.5c-1.6,0.2-1.8,0.1-1.6-0.9
		C69.6,81.7,69.9,81.3,69.9,81.3z"/>
	<path class="st3" d="M19.5,131c-2-4.4,0.2-2.6,2.5-2.4c-5.9-7.8-2.6-8.7-0.1-8.7s10.1,3.6,13.9,2.5c-5.8-0.8-13.8-4.9-4-4
		c-9.1-1.9-8.7-5.5-2.5-4.7c6.2,0.8,17.1-1.2,18.8-6.4c-7.7,4-17.1,3.7-21.8,0c-4.7-3.7-9.5-5.1-13.5-8.9s-4.9-7.8-4.5-11.6
		c0.3-2.3,1.9-5.9,1.7-6.6c-0.3-0.7-1.4-1.2-2.2-2.7c-1.9-3.8-0.3-7.9,1.2-10.9c-3.1-2-4.2-5.4-3.2-11.1s-0.9-7.6-0.9-7.6
		s-2.9,5.5-2,9.3c0.9,3.7,0.8,4,1,7.4c0.1,1.9-0.7,4-0.5,7.5C3.4,74.9,4.7,83.5,5,84.8c0.6,2.9,1.4,13.5,7.6,17.9
		c0.7,2.9,0,4.3-0.5,9.6C11.7,116.7,13.5,126.1,19.5,131z"/>
	<path class="st3" d="M4.9,83.6c-0.9,0.4-2.1,0.3-2.4-1.4c0.2,1.6,1.4,2.7,2.6,2.1L4.9,83.6z"/>
	<path class="st3" d="M75.1,67.9c-0.1,1.4-0.4,2.4-0.4,3s-0.1,2.1-0.7,3.2s-1.6,2.3-1.6,2.3s0.2,0.1,0.7,0.9
		c-0.1-0.9,0.7-1.5,0.9-2.1s1.1-1.7,0.9-3.3c-0.2-1.5,0.4-2.5,0.4-3.4C75.4,67.8,75.1,67.9,75.1,67.9z"/>
	<path class="st3" d="M71.7,64.2c0,0,2.2-1.8,2.7-2.5c0.5-0.7,1-0.4,1.1,0.6s-0.4,3.6-0.2,5c-0.7-0.9-0.3-2.4-0.5-3.6
		C74.7,62.6,73.6,63,71.7,64.2z"/>
	<path class="st3" d="M70.7,74.3c0.5,0.2,0.8,0.9,0.8,0.9c0.1-1,0.4-1.3,0.9-1.8c0.5-0.6,0.6-0.7,0.7-1.5c-0.4,0.6-0.4,1.1-1,1.4
		C71.5,73.7,71.3,74,70.7,74.3z"/>
	<path class="st3" d="M47.8,68.6c1.2,0.4,5.4-0.3,6.8-1.2C51.9,69.1,48.1,69.8,47.8,68.6z"/>
	<path class="st3" d="M46.8,63.9c0.6,0.1-1.4-0.3-1.1-1.5c0.1-0.5,1.8-1.7,0.5-1c-0.9,1-2.8,1.6-3.4,1.9s-1.5,1.5,0.3,1.1
		S46,63.7,46.8,63.9z"/>
	<path class="st3" d="M40.1,67.7c-1-0.1-1.9-0.9-2.1-2.2s-0.4-3.6-1.1-3.9c-0.8-0.3-2.7-0.4-3.4,0.6c-0.7,1-0.9,2.2-1.4,3.8
		c-0.5,1.6-1.6,1.8-1.6,1.8s0.6-1.4,1-3.6c0.4-2.2,0.7-3,2.2-3.1s4-0.5,4.2-0.1C38.1,61.2,40.1,67.7,40.1,67.7z"/>
	<path class="st4" d="M70.3,72.3c0,0,0.6-1.9,0.8-4c0.1-1.4-0.1-1.6-0.1-2.8c0-1,0.2-2.1,0.2-2.5c0-1.8-2.3-2-2.3-2.4
		c-0.1-1,2.2-1.9,2.2-3.4c0-1.2,0.1-2.4,0.2-3.3c0.3-2.2,1-2.9-0.1-4.1c-1.1-1.2-3.8-3.6-4.4-6.8c0.5-1.1,0.7-4.4,0-6.6
		c-0.7-2.2-1.1-3-2.5-4.5c-1.5-1.5-0.5-3.5-2.3-5.4s-3.8-3.1-3.8-3.1c-7.5,2.5-17.9,8.3-29,6.4c7.1,0.6,14.9-3.2,14.9-3.2
		c-10.1,3.5-17.4,1.5-22.4,0.8c-6.5,2.4-8.2,1.1-8.2,1.1c-2.2,2.7-5.8,5.8-6.3,8.2s0.1,4.8,0.5,5.6s-0.7,1.7-1.4,3.6
		c-0.6,1.9-1.8,6.3-2.1,9.3c-0.3,3,0.1,5.8,0.1,7.1s-0.8,3.6-0.8,4.1c-0.1,0.5-0.6-1-0.7-2.5c-0.1-1.5,0.6-1.2-0.2-3.7
		c-0.8-2.5-1-4.1-1-6.8c-0.1-2.7,0-4.2-0.5-5.8s-0.5-3.6-0.8-5.5c-0.4-1.9-0.7-4.6,0-6.2c0.1-4.5,1.4-5.2,1.8-7.6s1.6-4.9,2.3-6.4
		c0.6-1.5,2.7-7.8,9.4-11.5s12.2-5.2,18-5.8c-4.2,0.3-5.2,0.7-5.2,0.7s8.1-3.3,14-2.8c-2.3-0.4-6.9,0.3-6.9,0.3s8.8-2.1,10.8-0.2
		c-0.3-0.8-1.1-0.9-2.2-1.7C46,2,50.2,2.2,51.2,2.2c1.7-0.1,3.6,0.1,4.6,1.9c-0.6-1.6-1.5-2.3-1.5-2.3s2,1,3.1,2.3
		c0.9-1.7,1.1-3.5,1.1-3.5s0.4,2.9,0.5,4.2c2.4-1.4,3-3.8,3-3.8s-1.2,3.7-1.7,4.5c3.6-0.6,5.4-2.9,5.4-2.9C64.8,4.2,61.3,6,61.3,6
		c5-1.6,7.7-0.7,7.7-0.7c-4.3-0.1-6.4,1.1-6.4,1.1C67.3,5.1,70,7.6,75,10.9c-4.5-2-4.8-1.3-4.8-1.3s2.7-0.1,5.2,6.1
		c-1.3-2.6-4.2-3.4-4.2-3.4c3,1.2,3.6,4.6,3.9,6.4c0.4,2,1.2,4,1.4,5.8s1.8,2.6,1.8,6.7s0.2,3.3-0.5,8.2c-0.7,4.9-0.5,6.8-1,8.2
		S76.1,49.4,76,52c0,2.6-1.3,4-1.8,4.8c-0.7,1.2,0-0.5-0.6,1.4s-1.4,1.4-1.7,3.3c-0.1,0.6-0.5,2-0.6,3.6c-0.1,1.1,0.2,2.2,0,3.3
		C71.1,70.2,70.4,71.6,70.3,72.3z"/>
</g>
<g id="Layer_3">
	<path class="st5" d="M19,52.4c1.1,0.2,2.1,0.5,3.2,0.7c0.9,0.2,2,0.4,2.9-0.1c1.3-0.9,1.6-2.2-0.9-2.8C22,49.6,19.9,50,18,51.1
		c-0.3,0.2-0.6,0.5-0.5,0.8c0.1,0.3,0.4,0.4,0.7,0.4C18.5,52.3,18.7,52.4,19,52.4z"/>
	<path class="st5" d="M44.6,52.5c-1.2-1,0.1-2.6,2.4-3.3c1.4-0.4,2.9-0.1,4.2,0.7c0.5,0.3,1.6,1.3,0.7,1.8c-0.1,0.1-0.2,0.1-0.4,0.1
		c-1.4,0-2.6,0.1-3.9,0.5C46.8,52.3,45.4,53.1,44.6,52.5z"/>
	<path class="st5" d="M27.4,79.5c0.6-0.4,1.5-0.6,2.1-0.5c0.6,0.1,1,0,1.8,1c0.8,1,2.3,1.2,3.3,1.2c-2.2,0.2-3.6-0.6-3.9-0.9
		c-0.3-0.3-0.2,0.4-1.1,0.2c-1-0.3-1.9,0-2.6,0s-1.5-1-1.6-2.1C25.6,79.5,26.4,80.3,27.4,79.5z"/>
	<path class="st5" d="M36.3,80.7c0.7-0.9,2.2-1.6,3.5-1.6c1.4,0,1.7,0.3,1.5,0.6c-0.2,0.4,0.4,0.5,0.9,0.4c-0.5,0.2-1.2,0.2-1.4-0.3
		c-0.7,0.3-1.5,0.1-2.1,0S37.2,80.1,36.3,80.7z"/>
	<path class="st5" d="M2.8,65.1c-0.7-0.9-1.2-1.4-1.5-1.4s-0.6,0.2-0.6,0.2S1,63.9,1.1,64c0.1,0.1,0.2,0.4,0,0.8S0.9,65.3,1,65.9
		c0.1,0.6,0.4,0.7,0.4,1.2s0.2,0.9,0.2,1.5c0,0.3,0,1.8,0.2,3.3c0.2,1.4,0.8,2.1,0.8,3.5c-0.1-1.4-0.5-2.2-0.6-3.6
		c-0.2-1.4-0.1-2.7,0.1-3c0.4-0.6,0.1-0.9,0-1.9c-0.1-1-0.3-2-0.3-2S2.4,65.2,2.8,65.1z"/>
	<path class="st5" d="M72.4,63.6c1.4-1.3,2-2.3,2.4-2.5c0.4-0.2,1.1-0.7,1.1,0.4c0,1.1,0.2,2,0,2.5c-0.2,0.5-0.4,2.1-0.5,2.9
		c-0.1,0.8-0.2,2.5-0.2,2.5s-0.3-1.8-0.2-2.6c0.1-0.9,0.3-2.3,0.4-3c0-0.7-0.2-1.2-0.2-1.4c0-0.2,0.1-0.9-0.3-0.7
		C74.3,61.8,73.3,62.8,72.4,63.6z"/>
	<path class="st5" d="M23.5,62.8c0,0.6-0.3,1.2-0.7,1.6c0.2,0,0.3,0,0.5,0c0.4-0.4,0.6-1,0.6-1.7c0-0.4-0.1-0.8-0.3-1.1
		c-0.2,0-0.3,0-0.5,0C23.4,62,23.5,62.3,23.5,62.8z"/>
	<path class="st5" d="M19.4,62.8c0-0.4,0.1-0.8,0.3-1.1c-0.2,0-0.3,0-0.5,0.1c-0.1,0.3-0.2,0.6-0.2,1c0,0.6,0.2,1.1,0.5,1.5
		c0.2,0,0.3,0,0.5,0C19.6,63.9,19.4,63.4,19.4,62.8z"/>
	<path class="st5" d="M20.1,62.8c0,0.8,0.6,1.4,1.4,1.4c0.8,0,1.4-0.6,1.4-1.4c0-0.5-0.3-0.9-0.7-1.2c-0.5,0-1,0-1.4,0
		C20.3,61.9,20.1,62.3,20.1,62.8z"/>
	<path class="st5" d="M13.5,63.4c2-0.5,3.9-1.7,7.1-1.9c3.3-0.2,4.2-0.2,5.3,0.8c0.9,0.8,1.7,0.9,1.7,1.4s-2.7,0.6-3.9,0.8
		c2.5-0.6,2.6-0.7,2.4-1.3c-0.2-0.6-1.5-1.3-3.1-1.3c-0.8,0-1.5-0.1-3.1,0.1c-1.6,0.2-2.3,1-3,1.2c-0.7,0.2,0.1,0.6,1.2,0.9
		c-1.4-0.1-1.2-0.5-2.4-0.4S13.5,63.4,13.5,63.4z"/>
	<path class="st5" d="M47.8,62.2c0-0.4,0.1-0.8,0.3-1.2c-0.2,0-0.3,0-0.5,0.1c-0.1,0.3-0.2,0.7-0.2,1.1c0,0.6,0.3,1.2,0.7,1.6
		c0.2,0,0.3-0.1,0.5-0.1C48.2,63.4,47.9,62.8,47.8,62.2z"/>
	<path class="st5" d="M52,62c0,0.6-0.2,1.1-0.6,1.5c0.2,0,0.3,0,0.5,0c0.3-0.4,0.5-1,0.4-1.5c0-0.4-0.1-0.7-0.3-1
		c-0.1,0-0.3,0-0.5,0C51.9,61.3,52,61.6,52,62z"/>
	<path class="st5" d="M48.6,62.2c0,0.8,0.7,1.3,1.4,1.3c0.8,0,1.3-0.7,1.3-1.4c0-0.5-0.3-0.9-0.7-1.1c-0.4,0-0.9,0-1.4,0
		C48.8,61.2,48.5,61.7,48.6,62.2z"/>
	<path class="st5" d="M57.8,62.3c-2.6,0-3.6-1.6-6.8-1.6c-3.3,0-4.5,0.3-5.5,1.3c-0.9,0.9-1.8,0.8-1.8,1.3c0,0.5,2.7,0.5,3.9,0.5
		c-3.1-0.6-2.5-0.8-2.1-1.2c0.4-0.4,1.1-1.3,2.7-1.5c0.8-0.1,1.5-0.2,3.1-0.1c1.6,0.1,2.4,0.9,3,1c0.7,0.1-0.1,0.6-1.1,1
		c1.4-0.2,1.2-0.6,2.4-0.6C56.9,62.7,57.8,62.3,57.8,62.3z"/>
	<path class="st5" d="M22,91.6c1.2-0.5,1.8-0.9,2.2-0.9c0.4,0,1.4,0.2,1.9,0c0.2-0.1,1.7-0.3,3.1-0.3c2.1,0,4.4,0.4,4.4,0.4
		s-1.2-0.6-2.3-0.6c-0.3,0-1.1,0.1-2.1,0.1c-1.4,0-2.6-0.1-3.1-0.1s-0.9,0.2-1.5,0.2C24,90.3,22.5,91.2,22,91.6z"/>
	<path class="st5" d="M35,90.7c0.6,0.3,2.8-0.5,4.1-0.5c0.9,0,2,0.2,3,0.3c2,0.1,3.9,0.2,4.1,0.2c0.4,0,1.1-0.1,1.9,0
		c0.8,0.1,1.4-0.1,0.9-0.2s-1.4-0.4-2-0.2s-0.8,0.2-1.5,0c-0.2,0-1.6,0.1-3.2,0c-1.1-0.1-2.3-0.4-3.2-0.4
		C36.5,90.1,37.1,90.7,35,90.7z"/>
	<path class="st5" d="M25.3,107.8c2.5,1.4,6.9,2.6,11.6,2.3c4.7-0.4,8.3-0.7,10.5-2C45,109.8,29.7,113.4,25.3,107.8z"/>
	<path class="st5" d="M71.3,41.1c1.6,1,2.9,1.9,2.9,2.6c-1.6-1.4-2.6-1.8-2.5-1.3c0.1,0.5,0,1.8,1,2.1c-1.2,0.1-1.4-0.8-1.4-1.7
		C71.3,41.9,70.8,40.8,71.3,41.1z"/>
	<path class="st5" d="M66.6,33.7c2.9,0,3.4-0.1,4.9,0.7c-1.9-1.3-4.8-1.6-5.2-1.9c-0.4-0.2-2-2.2,0.5-1.8c-1.1-0.5-1.8-0.6-1.9-1.1
		c-0.1-0.4,1.6-1.6,4.5,0c-2.2-1.5-3.5-1.4-5.2-0.8c-1.8,0.6,0.6,1.8,0.7,3.2C65,33.4,66.6,33.7,66.6,33.7z"/>
	<path class="st5" d="M61.9,25.5c0.6-0.6,3-0.4,3-0.4s-2,0.1-2.3,0.4c-0.3,0.3,1,0.7,1.8,0.7C63.6,26.4,61.7,25.7,61.9,25.5z"/>
	<path class="st5" d="M62.9,23.9c-1,0.3-1.1,1.1-1.6,1.1s-1.1,0-1.4-1.1c-0.3-1.1,2.5-2.5,6-1.6c-3.2-0.2-3.9,0.3-3.9,0.8
		C61.9,23.5,62.1,23.5,62.9,23.9z"/>
	<path class="st5" d="M13.6,28.7c0,0-2.8-1.3-3-3.9c0,0-1.1,1.3-2.6,0.2c0.7,0.8,2.3,0.8,2.3,0.8s0.6,0.3,0.6,0.5
		c-0.1,0.2-0.3,0.9-2.1,0.5c1.9,0.5,2.2-0.1,2.5,0.4c0.2,0.4-1.3,1.2-3.1,1.1c1.2,0.3,2.3,0,2.5,0c0.2,0,0.3,0.3-0.2,0.8
		c-0.5,0.5-1.4,1.1-2.4,1.6C9,30.4,10,29.6,10.5,30c0.7,0.6,0,1.6-0.5,2.7c1.1-0.9,1.9-2.1,2.3-2.6C13,29.3,13.4,29,13.6,28.7z"/>
	<path class="st5" d="M6.4,30.1c-2,0.2-3,1.3-0.6,1.1c-1.3,0.8-1.5-0.3-2.4,0.6c-0.9,0.8-1.1,0.9-1.4,1.8C2,32,4.2,29.4,6.4,30.1z"
		/>
	<path class="st5" d="M8.7,34.3c0,0-4.5,0-6.2,2.3c3-1.3,3.9-1.5,4.9-0.2C7.9,35,8.7,34.3,8.7,34.3z"/>
	<path class="st5" d="M4.8,41c0.6-1,1.6-1.8,1.6-1.8s-2.7,0.2-3.5,2.4c0.7-1.4,2.2-1.7,2.2-1.7S4.8,40.6,4.8,41z"/>
	<path class="st5" d="M75.6,41.4c-1-1.2-3.4-1.9-3.4-1.9s2.3-1.9,2.1-3.6c0.3,2-1.1,3.3-1.1,3.3S75.1,40.2,75.6,41.4z"/>
	<path class="st5" d="M4.6,46.8c-2.3,1.5-2.4,2.3-3,1.4s0.1-1.2,0.4-1.9c0.3-1.1,1.2-1.5,1.2-1.5S2.3,45.8,2,47
		C1.6,48.1,3.2,47.2,4.6,46.8z"/>
	<path class="st5" d="M3.1,65.2c-0.2-1.2-0.2-1-0.1-2c0.1-1,0.1-1.5-0.2-2.6s-0.9-3.2-1.1-7.3c0-1,0.5-1.7,0.5-1.7S2,53.9,2.2,54.7
		S2.5,58,3,59.6s0.5,3.2,0.7,4.4c0.2,1.2,0.3,1.3,0.1,2C3.6,66.7,3.6,67.6,3.1,65.2z"/>
	<path class="st5" d="M32.2,27.9c2.7-0.1,5.4-0.2,4.6-1.2c-0.7-1-4.3,1.2-9.4-0.5c0,0,2.5,1.2,6,0.9C36.9,26.8,35.2,27.5,32.2,27.9z
		"/>
	<path class="st5" d="M21,26.9c4,0,4.7,0,5.3-0.7c0.6-0.7-1-0.8-1-0.8s1.1,0,2.1-0.6c-3,1.1-5.2,0-5.2,0
		C23.9,25.8,28.9,26.2,21,26.9z"/>
	<path class="st5" d="M33,20.9c-5.1-3.2-8.8,2.5-11.2,0C24.2,23.9,28.1,18.6,33,20.9z"/>
	<path class="st5" d="M59.8,22.3c0.4-0.4,2-0.8,4.9-0.8c-9.1-0.4-0.2-1.2,1.2-3.8c-1.4,1.8-4.6,1.9-5.7,2.7S60.1,18.9,61,18
		c-1.2,0.6-1.6,1.8-1.6,1.8s-0.6-1.6,0-3.6c-1,1.6-1.1,3.8-1.1,3.8s-1.2,0.6-1.3-0.9c-0.1-1.5,0-3.1,0-3.1s-0.5,3.6-0.5,4.3
		C56.4,21.5,58.4,23.6,59.8,22.3z"/>
	<path class="st5" d="M52.3,20.6c-0.7,2.7-3.9,1.5-5.1,2.7c0.3-0.8,2-1.3,2-1.3c-2.4-0.2-3.7,0.5-3.7,0.5s2.4-1.7,4.4-0.5
		C51.6,21.9,52.3,20.6,52.3,20.6z"/>
	<path class="st5" d="M55.8,22.9C49.9,24.4,44.3,28,44.3,28C46.5,25.4,53.3,22.5,55.8,22.9z"/>
	<path class="st5" d="M36.4,23.8c4.7,0.4,9.2-2.1,9.2-2.1s-8,0.9-9.3,0.7c4,0.6,6.7-0.2,6.7-0.2S39.3,23.7,36.4,23.8z"/>
	<path class="st5" d="M55.1,19.3c1.7-2.1,1.3-4.9,0.4-6.6C56.6,15.3,55.1,19.3,55.1,19.3z"/>
	<path class="st5" d="M68.4,21.2c1.8-0.3,3.8,0.1,6.3,1.8C71.5,19.9,68.4,21.2,68.4,21.2z"/>
	<path class="st5" d="M62.9,24.6c3.9-0.8,5.6,0.2,7.7,1.5C66.7,22.4,62.9,24.6,62.9,24.6z"/>
	<path class="st5" d="M68.4,29.6c2,2.3,5.5,1.5,6,4.1C72.6,30.8,70.2,32.5,68.4,29.6z"/>
	<path class="st5" d="M18.2,19.9c-2.2,0.7-4.5,2.6-5.2,4.8c0.3-1.2,0.9-2.4,1.7-3.3C15.4,20.5,17.1,19.3,18.2,19.9z"/>
	<path class="st5" d="M51.6,10.5c0.8,0.7,1.6,0.7,1.6,0c0-0.7-0.7-2.6-2.5-3.7c2,1.5,2.4,3.6,1.9,3.6C52,10.4,51.6,10.5,51.6,10.5z"
		/>
	<path class="st5" d="M55.9,10c0.4,0.4,1,0.7,1.3,0c0.5-1,0.6-3.7,0-7.1c0,4.1-0.6,8.3-1.3,5.1C55.5,8.9,55.9,10,55.9,10z"/>
	<path class="st5" d="M34.4,15.7c-3.7,2.4-7,0.5-10.2,1.9C29.1,14.8,29.6,17.6,34.4,15.7z"/>
	<path class="st5" d="M40.7,17.6c-2.7-0.9-7.2,0.3-9,0.3C33.8,17.6,38.4,15.7,40.7,17.6z"/>
	<path class="st5" d="M24.6,15c1.2,0.6,2.7,1,2.8,0.4c0.1-0.6-0.7-0.8-1.2-1.1C26.8,15.1,27.2,15.6,24.6,15z"/>
	<path class="st5" d="M46.3,22.7c-3,2.4-9,4.8-9,4.8C43.2,26.2,46.3,22.7,46.3,22.7z"/>
	<path class="st5" d="M39.6,11.9c-3.7-1-9.2-0.9-10.8,0C34.8,11.3,39.6,11.9,39.6,11.9z"/>
	<path class="st5" d="M24.9,9.8c-3.9,0.6-8.6,3.3-8.6,3.3S20.4,9.5,24.9,9.8z"/>
</g>
<g id="Layer_7">
	<path class="st6" d="M24.6,60.7c1.9,1.2,5.5,1.9,4.3-0.3c-1.2-2.2-0.4-4.6-5.4-5.8s-6.2-0.5-8.2,0.6c3.5-0.4,5.6-0.3,7.5,0.9
		c-4.4-0.4-7.5-0.1-8.2,1.1s0.4,2.5,0.4,2.5S20.9,58.3,24.6,60.7z"/>
	<path class="st6" d="M17.5,71.5c-3.4,0.9-6,2-6.4,3.1c-0.4,1.1,2.2,3.4,5.6,2.7c3.4-0.7,6.7-1.2,8.7-2.8s4-3.2,1.2-2.5
		C23.7,72.5,18.9,71.1,17.5,71.5z"/>
	<path class="st6" d="M40.7,71.4c1.8,2,4.9,2.4,7.1,3.7s6.2,3.7,7.6,2.9c1.4-0.8,2.3-3.9,2.9-5.5c0.6-1.6,1.9-2.7-1.9-2.2
		s-8.4,1.4-10.3,1.1C44.3,71.1,39.6,70.1,40.7,71.4z"/>
	<path class="st6" d="M40.2,60.9c1.5-2.8,1.5-3.6,3.9-5.1c2.4-1.5,4.7-3.7,8.7-1.8c4.1,1.9,6.2,2.1,1.8,1.6s-5.1,0.5-5.1,0.5
		s3.8-1.4,6.9,0.4c3.1,1.8,3.2,3.2,3.2,3.2S59,58,52.4,58.4s-6.7,2.2-9.3,3.1C40.6,62.3,39.7,61.9,40.2,60.9z"/>
	<path class="st6" d="M21.8,47.6c3.8-0.9,7.3-1.4,3.5-4.9s0.3-7.2,5.3-6.4s16.2-9.9,17.6,0s-4.8,10.1-1.7,10
		c3.1-0.1,5.7,0.6,2.7,1.4s-4,1.7-10.1,2.8s-8.4,0.8-12.2-0.6C23.2,48.5,19.2,48.1,21.8,47.6z"/>
	<path class="st6" d="M11.6,65.7c1.3,0.2,0.9-1.4,1-2.6s-0.1-1.6-0.5-2.4c-0.4-0.8-0.7-2.8-1-2.3C10.7,59,9.6,65.4,11.6,65.7z"/>
	<path class="st6" d="M59.6,63.8c0.9,0.9,2.7-1.6,2.7-2.6c0-1.1-0.1-4.3-0.8-4.1c-0.8,0.2-0.9,3.2-1.3,4.1
		C59.8,62,58.6,62.9,59.6,63.8z"/>
	<path class="st6" d="M18.8,94.8c-1.6-2.8-2.1-3.9-1-4.2s-1-0.8-1-0.8s-2-0.9-2-3s-1.3-0.1-1.3,0.6c0,0.6-0.4,5.7,2,6.9
		C17.9,95.5,19.4,95.8,18.8,94.8z"/>
	<path class="st6" d="M33,93.4c-1.2,0.4-1.1,0.9-1.6,0.9S31,95,32.2,95s4.4,1.2,6.3,0.4s3.1-2.2,2-2c-1.1,0.1-3.7,0.4-4,0
		S34.6,92.8,33,93.4z"/>
	<path class="st6" d="M15,103.7c2.8,2.3,7.9,4.2,7.9,4.2S18.4,107.3,15,103.7z"/>
	<path class="st6" d="M32.3,76.5c0.8-0.7-0.4-2.1,1.1-1.8c1.5,0.3,2.4,0.2,2.6,1.8s-0.4,2.4-2.3,2.4C31.9,78.8,31.1,77.6,32.3,76.5z
		"/>
	<path class="st6" d="M37.7,103.3c0.6-1.4-1.6-5.1,0.5-4.3s5.4,3.3,3.8,5.7c-1.6,2.5-3.6,2-3.8,1S37.1,104.7,37.7,103.3z"/>
	<path class="st6" d="M73.7,73c0.5,0.6,0.9-0.6,0.7-1.5c-0.1-0.8,0.1-1.6,0.2-2.3s-0.3-0.7-0.4-0.2c-0.1,0.5-0.1,1.8-0.1,2.3
		S73.2,72.5,73.7,73z"/>
	<path class="st6" d="M74.7,77c-0.1,1.3,0.9-2.8,1.2-4.3c0.3-1.5,0.4-2.4,0.4-3c0-0.7-0.6,0.6-0.6,1.9C75.6,73,74.7,75.6,74.7,77z"
		/>
	<path class="st6" d="M262.9-173.4c-2.4-0.5-4.8-1.4-7.2-2.5C260.2-173.3,262.9-173.4,262.9-173.4z"/>
	<path class="st6" d="M77.4,22.9c-0.6-0.3-1.4-0.9-2.2-2c-2-2.5-3.8-3-3.8-3s1.3-0.3,2.8,0.4c-0.8-1.2-2.1-2.8-5.5-2.7
		c0,0,3.9-0.5,5.3,0.4c-0.9-0.7-1.9-1.2-3-1.5c-0.5-0.1-0.8-0.1-1.2,0c-0.8,0.1-1.5,0.1-2.3,0.5c-0.7,0.3-1.5,0.8-1.8,1.1
		c-0.5,0.6-1.2,1-1.9,1.4c-0.6,0.4-1.2,0.7-1.8,1c-0.5,0.3-1,0.6-1.5,0.9c0.9-0.5,2.1-0.4,3.4-0.9s2-1.2,4.2-0.9
		c-1.4,0.1-1.6,1.6-2.7,2.8c0.9-0.6,1.7-1.3,3.1-1.3c-1.1,0.4-1.5,1.1-2.5,2.2c1.8-1,3.4-1.6,5.9-1.1c0,0-0.8-1-2.6-0.9
		C72.2,18.4,74.7,21.6,77.4,22.9z"/>
	<path class="st6" d="M66.2,14.8c0.4-0.3,0.9-0.6,1.3-0.9c0.9-0.6,2.6-0.9,3.6-0.5c-3.7-1.4-5.8-0.4-5.8-0.7s5.8-1.9,9.1-0.3
		c-1.7-1.3-5.8-3.1-8.9-2c3-1.6,6.8-1.8,11.1-0.5c-3.7-1.7-8.2-1.9-15.8,0c-2.8,0.7-3.8,2.9-2.6,3.5c1.2,0.6,2.4-0.8,5.3-1.1
		c-2.8,0.6-3.1,2.4-3.7,4.6c0.1-0.5,1.6-0.3,2-0.4c0.9-0.1,1.7-0.4,2.5-0.7C65,15.5,65.6,15.2,66.2,14.8z"/>
	<path class="st6" d="M68.4,21.5c4.2,0,4.7,1.4,7.5,2.6c-2.8-0.8-3.5-1.4-5.1-1.1c1.8,0.1,3.7,4.1,6.7,5c-5.1-0.7-7.5-3.9-11.7-4.2
		c3.8-0.1,4.9,1.1,6.8,1.7c-2-1.2-2.1-2.3-5.4-2.7C69.6,22.4,69.8,22,68.4,21.5z"/>
	<path class="st6" d="M71.7,27.3c-1.6-1.1-5.4-2.5-5.9-1.1s0,2.6,6.8,3.6c-3.7-0.8-5-1.8-5.1-2.6C68,26.1,68.5,26.4,71.7,27.3z"/>
	<path class="st6" d="M67.5,34.7c2-1,2.2-0.5,3.9,0.5c-0.8,0-1.3-0.8-1.2,0c0.1,0.8,1.4-0.4,2.9,2.7c-1.6-1.8-3.9-1.7-5-1.5
		C69.5,35.3,70.4,33.7,67.5,34.7z"/>
	<path class="st6" d="M71.7,31.1c3.8,1.2,3.2,3,3.8,5.8C75.3,34.1,76.3,32.1,71.7,31.1z"/>
	<path class="st6" d="M72.6,40.6c0-0.7,3.8,0.8,4.1,4C75.6,40.6,72.6,41.3,72.6,40.6z"/>
	<path class="st6" d="M72.1,38.2c-1.2-1.1-2.2-1.3-3.4-1.1c-1.1,0.2-0.4,0,0.4,1.2s1.1,2.1,2.6,2.3c-0.9-0.3-1.1-1-1.5-1.7
		C69.9,38.4,69.3,37.6,72.1,38.2z"/>
	<path class="st6" d="M59.1,7.5c-0.1,2.1,0.5,2.4,1.2,2.2C61,9.6,62.6,9.5,62.8,0c-0.4,7.9-1.6,8.6-2.4,8.6c-0.8,0-1-1.7-0.8-3.5
		C59.6,5.1,59.1,6.7,59.1,7.5z"/>
	<path class="st6" d="M57.3,10.3c0.5,0.1,2.7-5.5,0.5-9.4C60.1,6.8,56.3,10.1,57.3,10.3z"/>
	<path class="st6" d="M72.1,28.2c0.5,1,1.4,1.6,1.7,3.2c0.3-1.2-0.2-2.5-0.2-2.5s2.1,1.4,3.1,7c-0.4-4.2-2.4-7.4-3.6-8.2
		C72.7,27.3,71.6,27.2,72.1,28.2z"/>
	<path class="st6" d="M70.1,32.5c2.7,1.5,1.6,3.5,3.7,3.6C71.7,35.6,72.8,32.9,70.1,32.5z"/>
	<path class="st6" d="M67.5,43.2c0.9-0.7,2.3-2.2,2.3-2.2s0.4,1.2,0,2.2c0.5,0.2,1.3-0.4,1.3-0.4s-0.2,1.8-1.6,3.5
		c1.1-1.8,0.8-2.8,0.8-2.8s-0.7,0.7-1.5,1c0.5-0.7,0.5-2.3,0.5-2.3S68.6,42.9,67.5,43.2z"/>
	<path class="st6" d="M73.4,44.6c0.2,2.7-2,3.7-2,3.7s1.4,0,2.2-1c-1.6,1.9-1.9,3.8,0.2,4.5c-1.3-1-0.2-2.4-0.2-2.4
		s-0.4,1.3,0.7,1.8c-0.6-0.6,0.5-2.5,1.2-2.7c-0.7-0.2-0.7-0.3-0.5-0.7c-0.8,0-0.1-1.2-0.1-1.2C73.9,46.6,74.3,45.8,73.4,44.6z"/>
	<path class="st6" d="M32.7,5.5c8.9,0.8,9.5,3.9,16.1,4.7c-3.3-0.8-7-2.9-7-2.9s1.9,1.4,4.8,1.1c-3-0.3-4.5-2.6-8.3-3.1
		c2.5,0.7,2.8,1.1,3.3,1.6C38.6,5.9,37.3,5.6,32.7,5.5z"/>
	<path class="st6" d="M25.2,8.6c3.5,1.8,8.1,0.4,10,1.5c-0.8-0.8-5.2-1.6-6.7-2.2c1.4,0.4,7.4,0.5,7.7,2.7
		C34.7,9.8,27.2,10.5,25.2,8.6z"/>
	<path class="st6" d="M38.3,9C30,3.2,24,8.6,21.8,7.2C23.7,8.8,29.3,4.5,38.3,9z"/>
	<path class="st6" d="M77.1,39.7c-1.1-0.8,0.1-1.5-1.5-2.2C77.8,38.1,76.1,38.5,77.1,39.7z"/>
	<path class="st6" d="M36.4,9.4c1.9,2.3,9.6,2.4,9.6,2.4c-6.6-1.2-0.2-2.8,0.9-0.8C45.8,7.9,38.2,11.6,36.4,9.4z"/>
	<path class="st6" d="M24.6,26.4c-3.8,2.3-10,2.2-14.6,1.1C18.2,30.6,24.6,26.4,24.6,26.4z"/>
	<path class="st6" d="M6.6,25c-1.2-0.3-1.9,1.2-2.4,1.9c1.6-0.1,2.6-1,2.6-1c-0.5,1.9-3.3-0.2-5.2,6.4c3.7-4.3,4.5-1.8,6-4.8
		c-1.2,1.8-4.2,2.2-4.2,2.2s0.5-1.8,3.2-2.5c1.6-0.4,0.8-1.5,0.7-1.7c-0.9-0.7-1,0.8-2.2,0.9C5.9,26.2,5.4,25,6.6,25z"/>
	<path class="st6" d="M8.1,34c-4.7,0.7-5.8,1.8-6.7,2.8c0.8-1.5,1.8-2.6,1.8-2.6c-1.6,0.1-2.3,1.3-2.3,1.3C1.6,33.7,3,33.6,4.2,34
		c-1.1,0.3-1.2,1.1-1.2,1.1C5.5,33.5,8,33.9,8.1,34z"/>
	<path class="st6" d="M5.3,38.1c-2.6,1-4.4,3.1-4.4,3.1C2.5,38,5.3,38.1,5.3,38.1z"/>
	<path class="st6" d="M0.9,40c0.9-1.4,2.5-1.9,2.5-1.9C1.9,37.4,0.7,38,0.7,38c1.4,0,1.8,0.3,1.8,0.3C1.2,38.9,0.9,40,0.9,40z"/>
	<path class="st6" d="M6,46c-1.1,0.9-1.9,2.2-3.2,4.8C3.2,48.6,5,46.1,6,46z"/>
	<path class="st6" d="M2.4,46.9c1.5-0.3,1.6-2.6,1.6-2.6C4.3,46,4,46.9,2.4,46.9z"/>
	<path class="st6" d="M1.4,46.4c0-3.3,3.2-1.9,3.2-4.3C4.9,45.1,2.2,43,1.4,46.4z"/>
	<path class="st6" d="M5.1,45.3c0.6-1.8,1.5-2.8,2.2-2.9c-1.4-0.9-1.9-0.4-2.2-0.3c0.8-0.1,1.4,0.2,1.4,0.2
		C5.6,42.8,5.1,45.3,5.1,45.3z"/>
	<path class="st6" d="M1.3,44.5c0.7-1.3,2-0.8,2-1.9C3.1,43.5,1.7,42.9,1.3,44.5z"/>
	<path class="st6" d="M2.5,41.1c-0.8,1.1-1,0.7-1.2,2.1C1.1,41.5,2.5,41.1,2.5,41.1z"/>
	<path class="st6" d="M4.9,41.1c-0.9,1.5-1.1,0.3-2.7,2.1C3.5,41.4,3.6,42.3,4.9,41.1z"/>
	<path class="st6" d="M3.9,33.2c2.9,0,3.1-2.6,3.1-2.6C6,32.6,5.3,32.7,3.9,33.2z"/>
	<path class="st6" d="M76.4,31.6c1,1.8,1.8,2.2,0.9,5.5C78.7,34.2,78.2,33.3,76.4,31.6z"/>
	<path class="st6" d="M73.9,42.3c1.7,1.9,1.8,2.8,2.1,5.2C76.1,44.2,76,43.8,73.9,42.3z"/>
	<path class="st6" d="M74.8,38.3c1.3,1.4,1.4,2.1,1.5,3.9C76.5,39.8,76.4,39.4,74.8,38.3z"/>
	<path class="st6" d="M51.2,10.1C48.3,6.8,36.7,4,36.7,4C40.1,5.1,48.3,5.6,51.2,10.1z"/>
	<path class="st6" d="M28.2,13c-1.8-3.2-5.2-0.6-7.2-0.4c1.8,0.2,4.7-1.9,6.4-0.1c-2.6-0.7-10,2.1-12.9,0.8c2.9,2,10.4-1.2,11.5,0
		c-0.4,0.3-2.4,0.2-2.4,0.2s1.9,0.5,3.3-0.1c-0.4-0.3-1.5-0.7-1.5-0.7C25.7,12.7,26.9,12.7,28.2,13z"/>
	<path class="st6" d="M17,24.8c-6.1,2.8-7.8,0-8.9-1C9.8,26.6,12.3,27.7,17,24.8z"/>
	<path class="st6" d="M17,26.9c-4.4,1.2-6.3-1.2-6.4-2.7C10.2,26.4,12.6,28.7,17,26.9z"/>
	<path class="st6" d="M13,22.9c-2.1,1.7-4.3,1.2-4.9-0.7C8.5,25,11.4,24.9,13,22.9z"/>
	<path class="st6" d="M26.2,26.9c-2.8,1.9-10.2,2.8-12,1.6C18.5,30.6,26.8,28.5,26.2,26.9z"/>
	<path class="st6" d="M53.2,17.2C49,8,35.8,16,28.5,12.8c7.2,3.5,14.1-2.2,22.5,2.9C45.3,12.8,38.3,15,38.3,15S45.3,13.3,53.2,17.2z
		"/>
	<path class="st6" d="M54.4,17.6c-1.2-7.2-6.8-6.2-6.8-6.2S52.4,11.6,54.4,17.6z"/>
	<path class="st6" d="M50.5,21c-0.6-3.6-6.6-3.3-8.5-3c2.7,0,5.5,0.1,7.3,1.9c-7.9-2.2-11.3-1.7-16.7-0.6C41.5,17.9,50.5,21,50.5,21
		z"/>
	<path class="st6" d="M52.4,19.6c2,2.5,1.9,1.9,2.6,1.9c0.8,0,0.7-1.9,0.7-1.9s-0.5,1.2-1,1.2S53.4,20.3,52.4,19.6z"/>
	<path class="st6" d="M46.1,21.5c-8.8-0.6-12.5,0-15.3,0.8C38.2,19.5,46.1,21.5,46.1,21.5z"/>
	<path class="st6" d="M43.1,23.1c-8.9,2.9-15.1,1.2-16.4,0.7C33.7,27.6,43.1,23.1,43.1,23.1z"/>
	<path class="st6" d="M37.3,29.6c6.2-1.1,9.7-6.4,9.7-6.4C45.1,27,43,28.9,37.3,29.6z"/>
	<path class="st6" d="M33.3,19c-4.4-2.2-12.9-1.3-18.7,0.3C19.5,18.4,25.8,17.8,33.3,19z"/>
	<path class="st6" d="M26.8,19.9c-5.8,0-11.3,2.5-11.3,2.5S20.2,18.5,26.8,19.9z"/>
	<path class="st6" d="M28.5,23.1c-3.1-2.5-8.2,3.1-14,0.6C20.1,25.5,25.6,20.2,28.5,23.1z"/>
	<path class="st6" d="M24.6,15.7c-6.4,1.4-13.5-2.6-13.5-2.6C18.2,18.2,24.6,15.7,24.6,15.7z"/>
	<path class="st6" d="M24.6,15.7c0,0-7.1,2.8-11.6,1.1c4,1.1,8-0.4,8-0.4S23.2,16.1,24.6,15.7z"/>
	<path class="st6" d="M31,15.4c8.7,1.9,18.5-1.9,20.6,4c-2.9-1.4-4.2-2.6-10.4-1.9c1.4-0.6,4.9-0.8,4.9-0.8C41.5,16,35,17.2,31,15.4
		z"/>
	<path class="st6" d="M54.4,14.1c-0.5-5.9-1.6-6.5-1.6-6.5c1.8,1.6,1.9,3.7,1.9,3.7s0.6-3.8-1.2-7.3C55.6,7.4,56.2,12.2,54.4,14.1z"
		/>
	<path class="st6" d="M13.6,18.7c-2.3,0-5,1.2-6.4,3.1c0.6-1.1,1.6-2,2.6-2.7C10.7,18.5,12.7,17.8,13.6,18.7z"/>
	<path class="st6" d="M24.2,9.3c-4.7,0.5-8.3,4.5-12,3.5C15.5,13.2,20.6,8.6,24.2,9.3z"/>
	<path class="st6" d="M53.2,6.6c-2.1-3.2-5-2.6-7.8-4C48,4.4,48.8,3.2,53.2,6.6z"/>
	<path class="st6" d="M49.3,6.6c-1.4-2.2-6.3-2.4-6.3-2.4S46.8,5.2,49.3,6.6z"/>
	<path class="st6" d="M14.1,15.6c-1.9,0.5-3.2,0-5.4,2.5C10.3,15.3,12,15.2,14.1,15.6z"/>
</g>
<g id="Layer_8">
	<path class="st5" d="M65.9,60l2.1-0.4c0,0,4.4-2.4,5.6-2.8c1.2-0.4,1.1,1.7,1.1,2.2c-0.2-0.1-0.6,0.1-0.6,0.1l-5.7,3.6l-2.5,0.6
		v0.3L64,64.3c0,0,0,4.4-1,4.7c0.4-0.7,0.4-2.6,0.4-2.6s0-5.1-0.4-6c-0.4-1-0.8-1.4-1.5-1.8c-0.7-0.4-4.5-1.2-10.2-1.2
		S40.4,60,39.7,60.3c-0.7,0.3-1,0.2-1.3,0.7c-0.2,0.5,0.9,3,1.6,5.2c0.7,2.1,0.6,2.3,0.4,2.4s-0.6-0.4-0.9-1.2
		c-0.3-0.9-1.4-4.2-1.7-5s-0.2-1-1-1.1c-0.8,0-3,0.1-3.4,0.2c-0.4,0-0.4,0.2-0.8,0.8c-0.4,0.5-1.1,3.6-1.4,4.6s-0.7,1.2-0.9,1.1
		c-0.2-0.1,0.6-1.5,0.8-2.8c0.2-1.4,0.3-3.3,0.1-3.9c-0.2-0.6-0.4-0.9-1.7-1.2c-1.4-0.3-5.9-1.1-10-0.9s-9.9,0.8-11,2
		S7.5,62.2,7.4,63c-0.1,0.8,0,2,0,2.7c0,0.7,0.7,4.5,0.7,4.5S7.3,70.5,7,69.4c-0.3-1-0.3-2.7-0.7-3c-0.4-0.2-1.7-0.3-1.7-0.3L3,64.1
		c0,0,0-0.8-0.1-1.8c-0.2-0.9-0.1-1.1,0.3-0.7c0.4,0.4,1.5,1.1,1.5,1.1h1.1l0.6-0.4c0,0,0.5-1.3,1.8-1.8c1.3-0.6,5.6-1.8,11.1-1.8
		s9.3,0.6,11.9,1.5c0.5-0.1,1,0.4,1.2,0.4s4.6-0.2,5-0.2c0.4-0.1,1.1-0.4,1.6-0.4s5.4-3,12.2-3c8.1,0,9.4,0.8,10.5,1.3
		c1.1,0.6,1.6,1.4,1.6,1.4s1,0,1.2,0S65.5,59.6,65.9,60z"/>
</g>
<g id="Layer_6">
	<circle class="st7" cx="22.2" cy="62.3" r="0.5"/>
	<circle class="st7" cx="51.5" cy="61.7" r="0.5"/>
	<path class="st7" d="M8,68.4c0.4,2.5,0.2,4.3,3.6,4.7c3.3,0.4,10.3-0.1,13.1-0.3c2.8-0.2,4.2-1.6,4.6-3c-0.3,1.6-1.8,2.9-4.5,3.2
		c-2.7,0.3-9,0.8-13.1,0.4S8.2,70.1,8,68.4z"/>
	<path class="st7" d="M40.8,68.3c0.3,1,0.8,3.5,2.5,3.8c1.7,0.3,3,0.6,8.6,0s8.5-1.3,9.5-1.8c1-0.4,1.6-1.5,1.7-3.7
		c0.2,2.3-0.6,3.4-1.6,3.9C60.4,71,58.5,72,52,72.5s-7.6,0.2-8.8-0.1S41.3,71,40.8,68.3z"/>
	<path class="st7" d="M64.4,60.2c1,0,1,0.1,1.1,1c0,0.9,0.2,2.3,0.2,2.3s0.2,0.5,0.2-0.4s-0.1-2.6-0.1-2.9c-0.1-0.3-1.3-0.4-1.5-0.3
		C64.1,60,64.1,60.1,64.4,60.2z"/>
	<path class="st7" d="M63.5,67.9c0.6-1.8,0.4-3.1,0.4-4s-0.3-0.4-0.3,0C63.6,64.4,64,65.5,63.5,67.9z"/>
</g>
<g id="Layer_5" class="st0">
	<rect x="-409.5" y="-105.9" class="st8" width="53.8" height="53.8"/>
	<rect x="-409.5" y="-42.5" class="st9" width="53.8" height="53.8"/>
	<rect x="-409.5" y="20.9" class="st10" width="53.8" height="53.8"/>
	<rect x="-409.5" y="84.4" class="st2" width="53.8" height="53.8"/>
	<rect x="-409.5" y="147.8" class="st11" width="53.8" height="53.8"/>
	<rect x="-409.5" y="213.2" class="st12" width="53.8" height="53.8"/>
</g>
</svg>